<?xml version="1.0" standalone="no"?>
<!DOCTYPE svg PUBLIC "-//W3C//DTD SVG 20010904//EN"
 "http://www.w3.org/TR/2001/REC-SVG-20010904/DTD/svg10.dtd">
<svg version="1.0" xmlns="http://www.w3.org/2000/svg"
 width="500.000000pt" height="500.000000pt" viewBox="0 0 500.000000 500.000000"
 preserveAspectRatio="xMidYMid meet">
<metadata>
Created by potrace 1.14, written by Peter Selinger 2001-2017
</metadata>
<g transform="translate(0.000000,500.000000) scale(0.100000,-0.100000)"
fill="#000000" stroke="none">
<path d="M59 4967 c-23 -15 -37 -34 -43 -59 -8 -32 -6 -41 17 -72 15 -19 1105
-1113 2422 -2430 1705 -1707 2401 -2396 2417 -2397 48 -3 64 3 92 33 24 26 27
37 22 67 -5 30 -45 74 -273 303 -147 148 -1234 1236 -2415 2418 -1181 1183
-2154 2150 -2162 2150 -8 0 -21 2 -28 5 -8 3 -30 -5 -49 -18z"/>
<path d="M4872 4982 c-15 -2 -341 -321 -902 -884 -484 -484 -893 -895 -910
-914 -16 -19 -30 -46 -30 -60 0 -67 65 -117 124 -94 15 5 389 372 831 815 443
443 807 805 810 805 3 0 5 -660 5 -1466 l0 -1466 29 -29 c38 -37 88 -39 128
-5 l28 24 3 1597 c2 1768 7 1652 -61 1671 -18 5 -42 8 -55 6z"/>
<path d="M61 3487 c-53 -31 -50 63 -51 -1734 0 -1205 3 -1679 11 -1696 30 -65
138 -65 168 0 8 17 11 458 11 1571 l0 1547 758 -758 c697 -697 760 -757 790
-757 65 0 101 34 102 95 0 39 -7 46 -848 887 -744 746 -851 849 -882 853 -20
3 -45 -1 -59 -8z"/>
</g>
</svg>
